<svg width="518" height="187" viewBox="0 0 518 187" fill="none" xmlns="http://www.w3.org/2000/svg">
<path fill-rule="evenodd" clip-rule="evenodd" d="M507.532 70.7593C507.532 104.316 480.618 131.519 447.417 131.519C414.217 131.519 387.303 104.316 387.303 70.7593C387.303 37.2028 414.217 10 447.417 10C480.618 10 507.532 37.2028 507.532 70.7593ZM471.209 71.8313C471.209 84.1465 461.109 94.1299 448.65 94.1299C436.19 94.1299 426.09 84.1465 426.09 71.8313C426.09 59.5161 436.19 49.5327 448.65 49.5327C461.109 49.5327 471.209 59.5161 471.209 71.8313Z" fill="#333333"/>
<path d="M402.668 86.4195C409.745 86.4195 415.482 79.6844 415.482 71.3763C415.482 63.0681 409.745 56.333 402.668 56.333C395.591 56.333 389.854 63.0681 389.854 71.3763C389.854 79.6844 395.591 86.4195 402.668 86.4195Z" fill="#F9F9F9"/>
<path fill-rule="evenodd" clip-rule="evenodd" d="M497.661 70.7593C497.661 92.1448 480.033 109.481 458.288 109.481C436.542 109.481 418.914 92.1448 418.914 70.7593C418.914 49.3737 436.542 32.0374 458.288 32.0374C480.033 32.0374 497.661 49.3737 497.661 70.7593ZM471.209 71.8313C471.209 84.1465 461.109 94.1299 448.65 94.1299C436.19 94.1299 426.09 84.1465 426.09 71.8313C426.09 59.5161 436.19 49.5327 448.65 49.5327C461.109 49.5327 471.209 59.5161 471.209 71.8313Z" fill="#FFD42A"/>
<path d="M485.844 82.0921C491.134 82.0921 495.423 77.0182 495.423 70.7593C495.423 64.5003 491.134 59.4264 485.844 59.4264C480.553 59.4264 476.264 64.5003 476.264 70.7593C476.264 77.0182 480.553 82.0921 485.844 82.0921Z" fill="#333333"/>
<path d="M487 114L505.5 131.5L486 131.5L477 122L487 114Z" fill="#333333"/>
<path d="M64.4872 77.4C66.0339 75.3733 68.1405 73.6667 70.8072 72.28C73.4739 70.8933 76.4872 70.2 79.8472 70.2C83.6872 70.2 87.1805 71.16 90.3272 73.08C93.5272 74.9467 96.0339 77.5867 97.8472 81C99.6605 84.4133 100.567 88.3333 100.567 92.76C100.567 97.1867 99.6605 101.16 97.8472 104.68C96.0339 108.147 93.5272 110.867 90.3272 112.84C87.1805 114.76 83.6872 115.72 79.8472 115.72C76.4872 115.72 73.5005 115.053 70.8872 113.72C68.2739 112.333 66.1405 110.627 64.4872 108.6L64.4872 135.96L55.3672 135.96L55.3672 70.92L64.4872 70.92L64.4872 77.4ZM91.2872 92.76C91.2872 89.72 90.6472 87.1067 89.3672 84.92C88.1405 82.68 86.4872 81 84.4072 79.88C82.3805 78.7067 80.1939 78.12 77.8472 78.12C75.5539 78.12 73.3672 78.7067 71.2872 79.88C69.2605 81.0533 67.6072 82.76 66.3272 85C65.1005 87.24 64.4872 89.88 64.4872 92.92C64.4872 95.96 65.1005 98.6267 66.3272 100.92C67.6072 103.16 69.2605 104.867 71.2872 106.04C73.3672 107.213 75.5539 107.8 77.8472 107.8C80.1939 107.8 82.3805 107.213 84.4072 106.04C86.4872 104.813 88.1405 103.053 89.3672 100.76C90.6472 98.4667 91.2872 95.8 91.2872 92.76ZM118.706 77.32C120.039 75.08 121.799 73.3467 123.986 72.12C126.226 70.84 128.866 70.2 131.906 70.2L131.906 79.64L129.586 79.64C126.013 79.64 123.293 80.5467 121.426 82.36C119.613 84.1733 118.706 87.32 118.706 91.8L118.706 115L109.586 115L109.586 70.92L118.706 70.92L118.706 77.32ZM159.409 115.72C155.249 115.72 151.489 114.787 148.129 112.92C144.769 111 142.129 108.333 140.209 104.92C138.289 101.453 137.329 97.4533 137.329 92.92C137.329 88.44 138.316 84.4667 140.289 81C142.262 77.5333 144.956 74.8667 148.369 73C151.782 71.1333 155.596 70.2 159.809 70.2C164.022 70.2 167.836 71.1333 171.249 73C174.662 74.8667 177.356 77.5333 179.329 81C181.302 84.4667 182.289 88.44 182.289 92.92C182.289 97.4 181.276 101.373 179.249 104.84C177.222 108.307 174.449 111 170.929 112.92C167.462 114.787 163.622 115.72 159.409 115.72ZM159.409 107.8C161.756 107.8 163.942 107.24 165.969 106.12C168.049 105 169.729 103.32 171.009 101.08C172.289 98.84 172.929 96.12 172.929 92.92C172.929 89.72 172.316 87.0267 171.089 84.84C169.862 82.6 168.236 80.92 166.209 79.8C164.182 78.68 161.996 78.12 159.649 78.12C157.302 78.12 155.116 78.68 153.089 79.8C151.116 80.92 149.542 82.6 148.369 84.84C147.196 87.0267 146.609 89.72 146.609 92.92C146.609 97.6667 147.809 101.347 150.209 103.96C152.662 106.52 155.729 107.8 159.409 107.8ZM244.665 70.2C248.131 70.2 251.225 70.92 253.945 72.36C256.718 73.8 258.878 75.9333 260.425 78.76C262.025 81.5867 262.825 85 262.825 89L262.825 115L253.785 115L253.785 90.36C253.785 86.4133 252.798 83.4 250.825 81.32C248.851 79.1867 246.158 78.12 242.745 78.12C239.331 78.12 236.611 79.1867 234.585 81.32C232.611 83.4 231.625 86.4133 231.625 90.36L231.625 115L222.585 115L222.585 90.36C222.585 86.4133 221.598 83.4 219.625 81.32C217.651 79.1867 214.958 78.12 211.545 78.12C208.131 78.12 205.411 79.1867 203.385 81.32C201.411 83.4 200.425 86.4133 200.425 90.36L200.425 115L191.305 115L191.305 70.92L200.425 70.92L200.425 75.96C201.918 74.1467 203.811 72.7333 206.105 71.72C208.398 70.7067 210.851 70.2 213.465 70.2C216.985 70.2 220.131 70.9467 222.905 72.44C225.678 73.9333 227.811 76.0933 229.305 78.92C230.638 76.2533 232.718 74.1467 235.545 72.6C238.371 71 241.411 70.2 244.665 70.2ZM279.07 65.08C277.416 65.08 276.03 64.52 274.91 63.4C273.79 62.28 273.23 60.8933 273.23 59.24C273.23 57.5867 273.79 56.2 274.91 55.08C276.03 53.96 277.416 53.4 279.07 53.4C280.67 53.4 282.03 53.96 283.15 55.08C284.27 56.2 284.83 57.5867 284.83 59.24C284.83 60.8933 284.27 62.28 283.15 63.4C282.03 64.52 280.67 65.08 279.07 65.08ZM283.55 70.92L283.55 115L274.43 115L274.43 70.92L283.55 70.92ZM311.523 115.72C308.057 115.72 304.937 115.107 302.163 113.88C299.443 112.6 297.283 110.893 295.683 108.76C294.083 106.573 293.23 104.147 293.123 101.48L302.563 101.48C302.723 103.347 303.603 104.92 305.203 106.2C306.857 107.427 308.91 108.04 311.363 108.04C313.923 108.04 315.897 107.56 317.283 106.6C318.723 105.587 319.443 104.307 319.443 102.76C319.443 101.107 318.643 99.88 317.043 99.08C315.497 98.28 313.017 97.4 309.603 96.44C306.297 95.5333 303.603 94.6533 301.523 93.8C299.443 92.9467 297.63 91.64 296.083 89.88C294.59 88.12 293.843 85.8 293.843 82.92C293.843 80.5733 294.537 78.44 295.923 76.52C297.31 74.5467 299.283 73 301.843 71.88C304.457 70.76 307.443 70.2 310.803 70.2C315.817 70.2 319.843 71.48 322.883 74.04C325.977 76.5467 327.63 79.9867 327.843 84.36L318.723 84.36C318.563 82.3867 317.763 80.8133 316.323 79.64C314.883 78.4667 312.937 77.88 310.483 77.88C308.083 77.88 306.243 78.3333 304.963 79.24C303.683 80.1467 303.043 81.3467 303.043 82.84C303.043 84.0133 303.47 85 304.323 85.8C305.177 86.6 306.217 87.24 307.443 87.72C308.67 88.1467 310.483 88.7067 312.883 89.4C316.083 90.2533 318.697 91.1333 320.723 92.04C322.803 92.8933 324.59 94.1733 326.083 95.88C327.577 97.5867 328.35 99.8533 328.403 102.68C328.403 105.187 327.71 107.427 326.323 109.4C324.937 111.373 322.963 112.92 320.403 114.04C317.897 115.16 314.937 115.72 311.523 115.72ZM378.658 91.88C378.658 93.5333 378.551 95.0267 378.338 96.36L344.658 96.36C344.924 99.88 346.231 102.707 348.578 104.84C350.924 106.973 353.804 108.04 357.218 108.04C362.124 108.04 365.591 105.987 367.618 101.88L377.458 101.88C376.124 105.933 373.698 109.267 370.178 111.88C366.711 114.44 362.391 115.72 357.218 115.72C353.004 115.72 349.218 114.787 345.858 112.92C342.551 111 339.938 108.333 338.018 104.92C336.151 101.453 335.218 97.4533 335.218 92.92C335.218 88.3867 336.124 84.4133 337.938 81C339.804 77.5333 342.391 74.8667 345.698 73C349.058 71.1333 352.898 70.2 357.218 70.2C361.378 70.2 365.084 71.1067 368.338 72.92C371.591 74.7333 374.124 77.2933 375.938 80.6C377.751 83.8533 378.658 87.6133 378.658 91.88ZM369.138 89C369.084 85.64 367.884 82.9467 365.538 80.92C363.191 78.8933 360.284 77.88 356.818 77.88C353.671 77.88 350.978 78.8933 348.738 80.92C346.498 82.8933 345.164 85.5867 344.738 89L369.138 89Z" fill="#333333"/>
</svg>
